Coordinates
version=1
nRows=19
nColumns=24
inDegrees=yes

Units are S.I. units (second, meters, Newtons, ...)
Angles are in degrees.

endheader
time	pelvis_tilt	pelvis_list	pelvis_rotation	pelvis_tx	pelvis_ty	pelvis_tz	hip_flexion_r	hip_adduction_r	hip_rotation_r	knee_angle_r	ankle_angle_r	subtalar_angle_r	mtp_angle_r	hip_flexion_l	hip_adduction_l	hip_rotation_l	knee_angle_l	ankle_angle_l	subtalar_angle_l	mtp_angle_l	lumbar_extension	lumbar_bending	lumbar_rotation
      2.45500000	      8.21700505	      3.10007249	     -3.19199063	     -0.17987943	      1.01754487	     -0.00230909	     16.01361080	     -5.92731697	     -1.13155751	    -17.54286039	      7.07586797	     -2.05314726	     15.88964707	    -18.62034531	      6.80382338	    -10.56921005	     -1.95335272	     13.85137401	     13.05494720	      0.59904918	    -16.84862998	     -3.41604763	     -0.03695764
      2.46000000	      8.17779388	      3.29378335	     -3.15986851	     -0.17482922	      1.01653845	     -0.00212487	     15.94568705	     -6.10536567	     -1.17852864	    -16.06969854	      6.85158221	     -1.73313208	     15.81599911	    -18.85879131	      6.99633461	    -10.47906358	     -2.01276444	     14.04074713	     13.04268720	      0.91038948	    -16.79936480	     -3.59887228	     -0.13561562
      2.46500000	      8.07663684	      3.51710674	     -3.18743836	     -0.16978509	      1.01539584	     -0.00182468	     15.98108322	     -6.28984982	     -1.16367994	    -14.66589922	      6.58997811	     -1.45392160	     15.77708228	    -19.01921687	      7.23219043	    -10.46444466	     -2.09094043	     14.26103472	     13.03988473	      1.01544678	    -16.67718292	     -3.83009103	     -0.16497185
      2.47000000	      8.09441809	      3.68902925	     -3.10797206	     -0.16462488	      1.01445968	     -0.00165595	     15.81332837	     -6.45959548	     -1.32939827	    -13.22627949	      6.35114670	     -1.19045598	     15.71615958	    -19.33002192	      7.38403510	    -10.36848017	     -2.15068891	     14.45503991	     13.09442762	      1.27555626	    -16.68784611	     -3.98170462	     -0.31032131
      2.47500000	      8.08207817	      3.88179739	     -3.06846386	     -0.15944806	      1.01345811	     -0.00142132	     15.70856154	     -6.63781988	     -1.48850495	    -11.86669100	      6.08970884	     -0.89688803	     15.65514496	    -19.60435226	      7.56778299	    -10.31671835	     -2.21738908	     14.63612470	     13.13204850	      1.55904944	    -16.66047379	     -4.16431054	     -0.40760374
      2.48000000	      8.07528424	      4.06594181	     -3.03555373	     -0.15422952	      1.01246001	     -0.00114987	     15.59955538	     -6.79958339	     -1.66414231	    -10.55961891	      5.81068718	     -0.64452562	     15.59647585	    -19.87944081	      7.74089861	    -10.29125136	     -2.30324600	     14.81409394	     13.19658639	      1.80506926	    -16.63601962	     -4.33916250	     -0.47654089
      2.48500000	      8.08774343	      4.22354290	     -2.99914160	     -0.14891758	      1.01149134	     -0.00083427	     15.46625594	     -6.92931324	     -1.88869498	     -9.31504714	      5.52940006	     -0.37649155	     15.53525914	    -20.20019563	      7.88552242	    -10.27733577	     -2.35384263	     14.99918239	     13.26537569	      2.08514670	    -16.62673729	     -4.48886661	     -0.58184642
      2.49000000	      8.09628660	      4.38579084	     -2.96391177	     -0.14359946	      1.01051482	     -0.00046882	     15.35270551	     -7.05459940	     -2.12690415	     -8.15409660	      5.25284544	     -0.13642912	     15.47660967	    -20.50114643	      8.02686710	    -10.27698972	     -2.43735669	     15.17105712	     13.35832050	      2.35829790	    -16.61469579	     -4.64604430	     -0.65899425
      2.49500000	      8.12891170	      4.51330765	     -2.93659019	     -0.13819352	      1.00958114	     -0.00004680	     15.21389662	     -7.13394650	     -2.38697869	     -7.06929166	      4.97097434	      0.09243173	     15.42168784	    -20.84409557	      8.13386662	    -10.29775001	     -2.50328639	     15.34484929	     13.45552569	      2.62958983	    -16.62181518	     -4.77063759	     -0.73503018
      2.50000000	      8.15476576	      4.63059538	     -2.90730579	     -0.13275563	      1.00865329	      0.00042427	     15.09460334	     -7.19237831	     -2.65945026	     -6.07706092	      4.70024986	      0.29791168	     15.37161377	    -21.16830010	      8.22165828	    -10.33002281	     -2.59767360	     15.50922089	     13.57795405	      2.89215376	    -16.61884755	     -4.88563739	     -0.78841577
      2.50500000	      8.20156625	      4.72588948	     -2.88587031	     -0.12726838	      1.00775022	      0.00094846	     14.96644026	     -7.21855271	     -2.93095919	     -5.18574908	      4.44708948	      0.49007697	     15.32638125	    -21.52600599	      8.28698424	    -10.37156715	     -2.67753118	     15.67317678	     13.69890892	      3.18515939	    -16.63752808	     -4.98192605	     -0.84914113
      2.51000000	      8.25062649	      4.79221454	     -2.86735646	     -0.12172183	      1.00687220	      0.00154156	     14.84721528	     -7.20229314	     -3.20248726	     -4.40074557	      4.21490256	      0.66043552	     15.28499307	    -21.89274744	      8.31802891	    -10.42003876	     -2.75118199	     15.83652484	     13.82107345	      3.50708568	    -16.65468826	     -5.05222683	     -0.90820186
      2.51500000	      8.27935125	      4.84999191	     -2.86681865	     -0.11614958	      1.00597383	      0.00216863	     14.77928766	     -7.16779599	     -3.45570144	     -3.74143880	      4.01753004	      0.87132437	     15.20703482	    -22.23693524	      8.34509180	    -10.44671272	     -2.82017710	     15.81286839	     13.85053263	      4.93935908	    -16.64566568	     -5.11423477	     -0.91057015
      2.52000000	      8.30842050	      4.90495625	     -2.83441550	     -0.11059760	      1.00510228	      0.00283171	     14.70934392	     -7.12340095	     -3.64916224	     -3.16682055	      3.81831984	      0.88161627	     15.18005226	    -22.54850322	      8.34321847	    -10.47081167	     -2.96480202	     16.00592275	     13.97364401	      5.04596455	    -16.64448998	     -5.17328850	     -0.97972301
      2.52500000	      8.37815874	      4.90605615	     -2.81563436	     -0.10493202	      1.00430450	      0.00352806	     14.59878592	     -7.01889100	     -3.86810066	     -2.69822518	      3.65505788	      0.96721074	     15.17245553	    -22.92717261	      8.29176026	    -10.51999872	     -3.07752837	     16.16967465	     14.11835602	      5.21772503	    -16.67874832	     -5.17543566	     -1.01025600
      2.53000000	      8.41692278	      4.90257552	     -2.79329798	     -0.09925405	      1.00348699	      0.00422824	     14.53835022	     -6.90488185	     -4.04303058	     -2.34418684	      3.51723082	      1.00148560	     15.17042918	    -23.25860781	      8.22869623	    -10.54238648	     -3.21684317	     16.32109035	     14.24220446	      5.42926794	    -16.67873824	     -5.16938443	     -1.04001123
      2.53500000	      8.47173926	      4.89192314	     -2.78647037	     -0.09354288	      1.00270817	      0.00497120	     14.47863108	     -6.77825083	     -4.18947886	     -2.10421777	      3.39048825	      1.07334731	     15.29648306	    -23.61483143	      8.16341255	    -10.54647552	     -3.33312974	     16.28997022	     14.27813132	      6.78899630	    -16.69371695	     -5.16092317	     -1.05076616
      2.54000000	      8.49434577	      4.87000424	     -2.74776502	     -0.08784369	      1.00191423	      0.00569149	     14.45332981	     -6.63827543	     -4.27433323	     -1.95806972	      3.29107348	      0.97400640	     15.28731628	    -23.90379989	      8.06570475	    -10.51487334	     -3.52361405	     16.46089827	     14.34112973	      6.88281050	    -16.67888493	     -5.13155890	     -1.09859950
      2.54500000	      8.53995235	      4.81998986	     -2.70526996	     -0.08206717	      1.00118390	      0.00640134	     14.38917325	     -6.47197836	     -4.33379167	     -1.88065717	      3.20217030	      0.90423568	     15.29557285	    -24.22692184	      7.93498944	    -10.47124810	     -3.70149068	     16.58493788	     14.44607553	      7.06060150	    -16.68433272	     -5.06702292	     -1.14014746
